<mxfile host="app.diagrams.net" agent="Mozilla/5.0 (X11; Linux x86_64; rv:144.0) Gecko/20100101 Firefox/144.0" version="28.2.8">
  <diagram name="Page 1" id="G38CsQ0WNIgJ2ypy-GRN">
    <mxGraphModel dx="1360" dy="765" grid="1" gridSize="10" guides="1" tooltips="1" connect="1" arrows="1" fold="1" page="1" pageScale="1" pageWidth="827" pageHeight="1169" math="0" shadow="0">
      <root>
        <mxCell id="0" />
        <mxCell id="1" parent="0" />
        <mxCell id="gXZBOlXLgaywVW8N5NCI-38" value="C" style="text;html=1;whiteSpace=wrap;strokeColor=none;fillColor=none;align=left;verticalAlign=middle;rounded=0;fontFamily=Helvetica;fontSize=11;fontColor=default;labelBackgroundColor=default;" parent="1" vertex="1">
          <mxGeometry x="210" y="67" width="30" height="20" as="geometry" />
        </mxCell>
        <UserObject label="" tags="Arrière-plan" id="gXZBOlXLgaywVW8N5NCI-1">
          <mxCell style="vsdxID=1;fillColor=none;gradientColor=none;shape=stencil(UzV2Ls5ILEhVNTIoLinKz04tz0wpyVA1dlE1MsrMy0gtyiwBslSNXVWNndPyi1LTi/JL81Ig/IJEkEoQKze/DGRCBUSfoYEBSI+RQSWED+G5QZTmZObhUQrjY1VMtlISHICiFMhA+DEtMycHEkTI8uhhAhSChKexKwA=);strokeColor=#000000;spacingTop=-2;spacingBottom=-2;spacingLeft=-2;spacingRight=-2;points=[];labelBackgroundColor=#ffffff;rounded=0;html=1;whiteSpace=wrap;" parent="1" vertex="1">
            <mxGeometry x="92" y="52" width="20" height="60" as="geometry" />
          </mxCell>
        </UserObject>
        <UserObject label="" tags="Arrière-plan" id="gXZBOlXLgaywVW8N5NCI-2">
          <mxCell style="vsdxID=2;edgeStyle=none;startArrow=none;endArrow=none;startSize=3;endSize=3;strokeColor=#000000;spacingTop=-2;spacingBottom=-2;spacingLeft=-2;spacingRight=-2;verticalAlign=middle;html=1;labelBackgroundColor=#ffffff;rounded=0;" parent="1" edge="1">
            <mxGeometry relative="1" as="geometry">
              <Array as="points" />
              <mxPoint x="92" y="52" as="sourcePoint" />
              <mxPoint x="112" y="40" as="targetPoint" />
            </mxGeometry>
          </mxCell>
        </UserObject>
        <UserObject label="" tags="Arrière-plan" id="gXZBOlXLgaywVW8N5NCI-3">
          <mxCell style="vsdxID=3;edgeStyle=none;startArrow=none;endArrow=none;startSize=3;endSize=3;strokeColor=#000000;spacingTop=-2;spacingBottom=-2;spacingLeft=-2;spacingRight=-2;verticalAlign=middle;html=1;labelBackgroundColor=#ffffff;rounded=0;" parent="1" edge="1">
            <mxGeometry relative="1" as="geometry">
              <Array as="points" />
              <mxPoint x="116" y="52" as="sourcePoint" />
              <mxPoint x="116" y="112" as="targetPoint" />
            </mxGeometry>
          </mxCell>
        </UserObject>
        <UserObject label="" tags="Arrière-plan" id="gXZBOlXLgaywVW8N5NCI-4">
          <mxCell style="vsdxID=4;edgeStyle=none;startArrow=none;endArrow=none;startSize=3;endSize=3;strokeColor=#000000;spacingTop=-2;spacingBottom=-2;spacingLeft=-2;spacingRight=-2;verticalAlign=middle;html=1;labelBackgroundColor=#ffffff;rounded=0;" parent="1" edge="1">
            <mxGeometry relative="1" as="geometry">
              <Array as="points" />
              <mxPoint x="112" y="52" as="sourcePoint" />
              <mxPoint x="132" y="40" as="targetPoint" />
            </mxGeometry>
          </mxCell>
        </UserObject>
        <UserObject label="" tags="Arrière-plan" id="gXZBOlXLgaywVW8N5NCI-5">
          <mxCell style="vsdxID=5;edgeStyle=none;startArrow=none;endArrow=none;startSize=3;endSize=3;strokeColor=#000000;spacingTop=-2;spacingBottom=-2;spacingLeft=-2;spacingRight=-2;verticalAlign=middle;html=1;labelBackgroundColor=#ffffff;rounded=0;" parent="1" edge="1">
            <mxGeometry relative="1" as="geometry">
              <Array as="points" />
              <mxPoint x="116" y="52" as="sourcePoint" />
              <mxPoint x="136" y="40" as="targetPoint" />
            </mxGeometry>
          </mxCell>
        </UserObject>
        <UserObject label="" tags="Arrière-plan" id="gXZBOlXLgaywVW8N5NCI-6">
          <mxCell style="vsdxID=6;edgeStyle=none;startArrow=none;endArrow=none;startSize=3;endSize=3;strokeColor=#000000;spacingTop=-2;spacingBottom=-2;spacingLeft=-2;spacingRight=-2;verticalAlign=middle;html=1;labelBackgroundColor=#ffffff;rounded=0;" parent="1" edge="1">
            <mxGeometry relative="1" as="geometry">
              <Array as="points" />
              <mxPoint x="136" y="40" as="sourcePoint" />
              <mxPoint x="136" y="100" as="targetPoint" />
            </mxGeometry>
          </mxCell>
        </UserObject>
        <UserObject label="" tags="Arrière-plan" id="gXZBOlXLgaywVW8N5NCI-7">
          <mxCell style="vsdxID=7;edgeStyle=none;startArrow=none;endArrow=none;startSize=3;endSize=3;strokeColor=#000000;spacingTop=-2;spacingBottom=-2;spacingLeft=-2;spacingRight=-2;verticalAlign=middle;html=1;labelBackgroundColor=#ffffff;rounded=0;" parent="1" edge="1">
            <mxGeometry relative="1" as="geometry">
              <Array as="points" />
              <mxPoint x="116" y="112" as="sourcePoint" />
              <mxPoint x="136" y="100" as="targetPoint" />
            </mxGeometry>
          </mxCell>
        </UserObject>
        <UserObject label="" tags="Arrière-plan" id="gXZBOlXLgaywVW8N5NCI-8">
          <mxCell style="vsdxID=8;edgeStyle=none;startArrow=none;endArrow=none;startSize=3;endSize=3;strokeColor=#000000;spacingTop=-2;spacingBottom=-2;spacingLeft=-2;spacingRight=-2;verticalAlign=middle;html=1;labelBackgroundColor=#ffffff;rounded=0;" parent="1" edge="1">
            <mxGeometry relative="1" as="geometry">
              <mxPoint as="offset" />
              <Array as="points" />
              <mxPoint x="112" y="40" as="sourcePoint" />
              <mxPoint x="132" y="40" as="targetPoint" />
            </mxGeometry>
          </mxCell>
        </UserObject>
        <UserObject label="" tags="Arrière-plan" id="gXZBOlXLgaywVW8N5NCI-9">
          <mxCell style="vsdxID=9;edgeStyle=none;startArrow=none;endArrow=none;startSize=3;endSize=3;strokeColor=#000000;spacingTop=-2;spacingBottom=-2;spacingLeft=-2;spacingRight=-2;verticalAlign=middle;html=1;labelBackgroundColor=#ffffff;rounded=0;" parent="1" edge="1">
            <mxGeometry relative="1" as="geometry">
              <Array as="points" />
              <mxPoint x="88" y="52" as="sourcePoint" />
              <mxPoint x="88" y="112" as="targetPoint" />
            </mxGeometry>
          </mxCell>
        </UserObject>
        <UserObject label="" tags="Arrière-plan" id="gXZBOlXLgaywVW8N5NCI-10">
          <mxCell style="vsdxID=10;edgeStyle=none;startArrow=none;endArrow=none;startSize=3;endSize=3;strokeColor=#000000;spacingTop=-2;spacingBottom=-2;spacingLeft=-2;spacingRight=-2;verticalAlign=middle;html=1;labelBackgroundColor=#ffffff;rounded=0;" parent="1" edge="1">
            <mxGeometry relative="1" as="geometry">
              <Array as="points" />
              <mxPoint x="88" y="52" as="sourcePoint" />
              <mxPoint x="108" y="40" as="targetPoint" />
            </mxGeometry>
          </mxCell>
        </UserObject>
        <UserObject label="" tags="Arrière-plan" id="gXZBOlXLgaywVW8N5NCI-11">
          <mxCell style="vsdxID=11;edgeStyle=none;startArrow=none;endArrow=none;startSize=3;endSize=3;strokeColor=#000000;spacingTop=-2;spacingBottom=-2;spacingLeft=-2;spacingRight=-2;verticalAlign=middle;html=1;labelBackgroundColor=#ffffff;rounded=0;" parent="1" edge="1">
            <mxGeometry relative="1" as="geometry">
              <Array as="points" />
              <mxPoint x="108" y="40" as="sourcePoint" />
              <mxPoint x="108" y="42" as="targetPoint" />
            </mxGeometry>
          </mxCell>
        </UserObject>
        <UserObject label="" tags="Arrière-plan" id="gXZBOlXLgaywVW8N5NCI-12">
          <mxCell style="vsdxID=12;edgeStyle=none;startArrow=none;endArrow=none;startSize=3;endSize=3;strokeColor=#000000;spacingTop=-2;spacingBottom=-2;spacingLeft=-2;spacingRight=-2;verticalAlign=middle;html=1;labelBackgroundColor=#ffffff;rounded=0;" parent="1" edge="1">
            <mxGeometry relative="1" as="geometry">
              <Array as="points" />
              <mxPoint x="132" y="40" as="sourcePoint" />
              <mxPoint x="132" y="42" as="targetPoint" />
            </mxGeometry>
          </mxCell>
        </UserObject>
        <UserObject label="" tags="Arrière-plan" id="gXZBOlXLgaywVW8N5NCI-13">
          <mxCell style="vsdxID=13;edgeStyle=none;startArrow=none;endArrow=none;startSize=3;endSize=3;strokeColor=#000000;spacingTop=-2;spacingBottom=-2;spacingLeft=-2;spacingRight=-2;verticalAlign=middle;html=1;labelBackgroundColor=#ffffff;rounded=0;" parent="1" edge="1">
            <mxGeometry relative="1" as="geometry">
              <Array as="points" />
              <mxPoint x="112" y="112" as="sourcePoint" />
              <mxPoint x="115" y="109" as="targetPoint" />
            </mxGeometry>
          </mxCell>
        </UserObject>
        <UserObject label="" tags="Arrière-plan" id="gXZBOlXLgaywVW8N5NCI-14">
          <mxCell style="vsdxID=14;edgeStyle=none;startArrow=none;endArrow=none;startSize=3;endSize=3;strokeColor=#000000;spacingTop=-2;spacingBottom=-2;spacingLeft=-2;spacingRight=-2;verticalAlign=middle;html=1;labelBackgroundColor=#ffffff;rounded=0;" parent="1" edge="1">
            <mxGeometry relative="1" as="geometry">
              <Array as="points" />
              <mxPoint x="88" y="112" as="sourcePoint" />
              <mxPoint x="91" y="109" as="targetPoint" />
            </mxGeometry>
          </mxCell>
        </UserObject>
        <UserObject label="" tags="Arrière-plan" id="gXZBOlXLgaywVW8N5NCI-15">
          <mxCell style="vsdxID=15;fillColor=#000000;gradientColor=none;shape=stencil(vVHLDsIgEPwajiQI6RfU+h8bu22JCGRB2/69kG1iazx58DazM/vIjjBtmiCi0CplCjecbZ8nYc5Ca+snJJsLEqYTph0C4Ujh4XvmEaqzont41gkL96naodXKrGF6YSfQtUi0OXXDVlqPfJNP6usotUhYbJIUMmQb/GGrAxpRljVycDBuc1hKM2LclX8/7H9nFfB+82Cd45T2+mcspcSRmu4F);strokeColor=#000000;spacingTop=-2;spacingBottom=-2;spacingLeft=-2;spacingRight=-2;points=[];labelBackgroundColor=none;rounded=0;html=1;whiteSpace=wrap;" parent="1" vertex="1">
            <mxGeometry x="124" y="74" width="4" height="6" as="geometry" />
          </mxCell>
        </UserObject>
        <UserObject label="" tags="Arrière-plan" id="gXZBOlXLgaywVW8N5NCI-16">
          <mxCell style="vsdxID=16;edgeStyle=none;startArrow=none;endArrow=none;startSize=3;endSize=3;strokeWidth=2;strokeColor=#000000;spacingTop=-2;spacingBottom=-2;spacingLeft=-2;spacingRight=-2;verticalAlign=middle;html=1;labelBackgroundColor=#ffffff;rounded=0;" parent="1" edge="1">
            <mxGeometry relative="1" as="geometry">
              <mxPoint as="offset" />
              <Array as="points" />
              <mxPoint x="126" y="77" as="sourcePoint" />
              <mxPoint x="148" y="77" as="targetPoint" />
            </mxGeometry>
          </mxCell>
        </UserObject>
        <UserObject label="" tags="Arrière-plan" id="gXZBOlXLgaywVW8N5NCI-17">
          <mxCell style="vsdxID=17;edgeStyle=none;startArrow=none;endArrow=none;startSize=3;endSize=3;strokeWidth=2;strokeColor=#000000;spacingTop=-2;spacingBottom=-2;spacingLeft=-2;spacingRight=-2;verticalAlign=middle;html=1;labelBackgroundColor=#ffffff;rounded=0;" parent="1" edge="1">
            <mxGeometry relative="1" as="geometry">
              <mxPoint as="offset" />
              <Array as="points" />
              <mxPoint x="77" y="77" as="sourcePoint" />
              <mxPoint x="88" y="77" as="targetPoint" />
            </mxGeometry>
          </mxCell>
        </UserObject>
        <UserObject label="" tags="Électrique Lien" id="gXZBOlXLgaywVW8N5NCI-24">
          <mxCell parent="1" vertex="1" visible="0">
            <mxGeometry as="geometry" />
          </mxCell>
        </UserObject>
        <mxCell id="gXZBOlXLgaywVW8N5NCI-37" value="" style="group" parent="1" vertex="1" connectable="0">
          <mxGeometry x="190" y="49.5" width="20" height="55" as="geometry" />
        </mxCell>
        <mxCell id="gXZBOlXLgaywVW8N5NCI-29" value="" style="edgeStyle=none;orthogonalLoop=1;jettySize=auto;html=1;rounded=0;strokeColor=default;align=center;verticalAlign=middle;fontFamily=Helvetica;fontSize=11;fontColor=default;labelBackgroundColor=default;endArrow=none;endFill=0;" parent="gXZBOlXLgaywVW8N5NCI-37" edge="1">
          <mxGeometry width="80" relative="1" as="geometry">
            <mxPoint y="30" as="sourcePoint" />
            <mxPoint x="20" y="30" as="targetPoint" />
            <Array as="points" />
          </mxGeometry>
        </mxCell>
        <mxCell id="gXZBOlXLgaywVW8N5NCI-34" value="" style="edgeStyle=none;orthogonalLoop=1;jettySize=auto;html=1;rounded=0;strokeColor=default;align=center;verticalAlign=middle;fontFamily=Helvetica;fontSize=11;fontColor=default;labelBackgroundColor=default;endArrow=none;endFill=0;" parent="gXZBOlXLgaywVW8N5NCI-37" edge="1">
          <mxGeometry width="80" relative="1" as="geometry">
            <mxPoint y="25" as="sourcePoint" />
            <mxPoint x="20" y="25" as="targetPoint" />
            <Array as="points" />
          </mxGeometry>
        </mxCell>
        <mxCell id="gXZBOlXLgaywVW8N5NCI-35" value="" style="edgeStyle=none;orthogonalLoop=1;jettySize=auto;html=1;rounded=0;strokeColor=default;align=center;verticalAlign=middle;fontFamily=Helvetica;fontSize=11;fontColor=default;labelBackgroundColor=default;endArrow=none;endFill=0;" parent="gXZBOlXLgaywVW8N5NCI-37" edge="1">
          <mxGeometry width="80" relative="1" as="geometry">
            <mxPoint x="10" y="30" as="sourcePoint" />
            <mxPoint x="10" y="55" as="targetPoint" />
            <Array as="points" />
          </mxGeometry>
        </mxCell>
        <mxCell id="gXZBOlXLgaywVW8N5NCI-36" value="" style="edgeStyle=none;orthogonalLoop=1;jettySize=auto;html=1;rounded=0;strokeColor=default;align=center;verticalAlign=middle;fontFamily=Helvetica;fontSize=11;fontColor=default;labelBackgroundColor=default;endArrow=none;endFill=0;" parent="gXZBOlXLgaywVW8N5NCI-37" edge="1">
          <mxGeometry width="80" relative="1" as="geometry">
            <mxPoint x="10" as="sourcePoint" />
            <mxPoint x="10" y="25" as="targetPoint" />
            <Array as="points" />
          </mxGeometry>
        </mxCell>
      </root>
    </mxGraphModel>
  </diagram>
</mxfile>
